<svg aria-label="Lund Browder body map posterior detail" class="burn-body-svg burn-body-back burn-body-detailed" role="img" viewBox="0 0 390 680">
<g class="burn-anatomy" filter="url(#burnSoftShadow)">
<g aria-label="Kepala belakang posterior" class="burn-area burn-area-svg" data-burn-area="headBack" role="button" tabindex="0">
<ellipse cx="195" cy="64" rx="42" ry="46"></ellipse>
<text x="195" y="65">A</text>
</g>
<g aria-label="Leher belakang posterior" class="burn-area burn-area-svg burn-neck" data-burn-area="neckBack" role="button" tabindex="0">
<path d="M164 112 L226 112 L219 150 L171 150 Z"></path>
<text x="195" y="134">1</text>
</g>
<g aria-label="Punggung atas posterior" class="burn-area burn-area-svg" data-burn-area="upperBack" role="button" tabindex="0">
<path d="M136 151 C154 137 236 137 254 151 L268 255 C235 269 155 269 122 255 Z"></path>
<text x="195" y="209">6½</text>
</g>
<g aria-label="Punggung bawah posterior" class="burn-area burn-area-svg" data-burn-area="lowerBack" role="button" tabindex="0">
<path d="M122 259 C155 273 235 273 268 259 L252 348 C225 360 165 360 138 348 Z"></path>
<text x="195" y="312">6½</text>
</g>
<g aria-label="Bokong kanan" class="burn-area burn-area-svg" data-burn-area="buttockRight" role="button" tabindex="0">
<path d="M138 350 C165 363 184 361 196 350 L190 411 C161 416 140 400 128 374 Z"></path>
<text x="162" y="386">2½</text>
</g>
<g aria-label="Bokong kiri" class="burn-area burn-area-svg" data-burn-area="buttockLeft" role="button" tabindex="0">
<path d="M252 350 C225 363 206 361 194 350 L200 411 C229 416 250 400 262 374 Z"></path>
<text x="228" y="386">2½</text>
</g>
<g aria-label="Lengan kanan atas posterior" class="burn-area burn-area-svg" data-burn-area="armRightUpperBack" role="button" tabindex="0">
<path d="M133 164 C103 175 88 207 82 248 L119 255 C124 222 133 196 148 177 Z"></path>
<text x="108" y="213">2</text>
</g>
<g aria-label="Lengan kanan bawah posterior" class="burn-area burn-area-svg" data-burn-area="armRightLowerBack" role="button" tabindex="0">
<path d="M81 253 L118 260 L103 343 C100 361 88 371 75 368 C62 365 56 351 60 333 Z"></path>
<text x="88" y="310">1½</text>
</g>
<g aria-label="Punggung tangan kanan posterior" class="burn-area burn-area-svg burn-hand" data-burn-area="handRightBack" role="button" tabindex="0">
<path d="M72 371 C61 378 58 392 64 405 C70 418 85 420 96 411 C104 404 107 390 101 379 C96 369 83 365 72 371 Z"></path>
<path class="burn-digit" d="M64 393 C52 388 48 397 57 404"></path>
<path class="burn-digit" d="M72 374 C68 360 78 357 82 371"></path>
<path class="burn-digit" d="M82 371 C82 356 94 356 94 373"></path>
<path class="burn-digit" d="M91 376 C101 364 111 371 101 383"></path>
<text x="82" y="397">1¼</text>
</g>
<g aria-label="Lengan kiri atas posterior" class="burn-area burn-area-svg" data-burn-area="armLeftUpperBack" role="button" tabindex="0">
<path d="M257 164 C287 175 302 207 308 248 L271 255 C266 222 257 196 242 177 Z"></path>
<text x="282" y="213">2</text>
</g>
<g aria-label="Lengan kiri bawah posterior" class="burn-area burn-area-svg" data-burn-area="armLeftLowerBack" role="button" tabindex="0">
<path d="M309 253 L272 260 L287 343 C290 361 302 371 315 368 C328 365 334 351 330 333 Z"></path>
<text x="302" y="310">1½</text>
</g>
<g aria-label="Punggung tangan kiri posterior" class="burn-area burn-area-svg burn-hand" data-burn-area="handLeftBack" role="button" tabindex="0">
<path d="M318 371 C329 378 332 392 326 405 C320 418 305 420 294 411 C286 404 283 390 289 379 C294 369 307 365 318 371 Z"></path>
<path class="burn-digit" d="M326 393 C338 388 342 397 333 404"></path>
<path class="burn-digit" d="M318 374 C322 360 312 357 308 371"></path>
<path class="burn-digit" d="M308 371 C308 356 296 356 296 373"></path>
<path class="burn-digit" d="M299 376 C289 364 279 371 289 383"></path>
<text x="308" y="397">1¼</text>
</g>
<g aria-label="Paha kanan posterior" class="burn-area burn-area-svg" data-burn-area="legRightThighBack" role="button" tabindex="0">
<path d="M140 414 C158 424 178 424 190 412 L187 485 L141 485 C134 456 133 432 140 414 Z"></path>
<text x="164" y="456">B</text>
</g>
<g aria-label="Tungkai bawah kanan posterior" class="burn-area burn-area-svg" data-burn-area="legRightLowerBack" role="button" tabindex="0">
<path d="M141 490 L187 490 L179 593 L131 593 Z"></path>
<text x="159" y="544">C</text>
</g>
<g aria-label="Kaki kanan posterior" class="burn-area burn-area-svg burn-foot" data-burn-area="footRightBack" role="button" tabindex="0">
<path d="M130 598 L180 598 C184 617 173 632 151 632 C132 632 121 621 130 598 Z"></path>
<path class="burn-digit" d="M134 624 C129 635 141 638 145 628"></path>
<path class="burn-digit" d="M147 628 C146 641 160 641 159 628"></path>
<path class="burn-digit" d="M160 627 C164 638 176 634 171 624"></path>
<text x="155" y="617">1¾</text>
</g>
<g aria-label="Paha kiri posterior" class="burn-area burn-area-svg" data-burn-area="legLeftThighBack" role="button" tabindex="0">
<path d="M250 414 C232 424 212 424 200 412 L203 485 L249 485 C256 456 257 432 250 414 Z"></path>
<text x="226" y="456">B</text>
</g>
<g aria-label="Tungkai bawah kiri posterior" class="burn-area burn-area-svg" data-burn-area="legLeftLowerBack" role="button" tabindex="0">
<path d="M249 490 L203 490 L211 593 L259 593 Z"></path>
<text x="231" y="544">C</text>
</g>
<g aria-label="Kaki kiri posterior" class="burn-area burn-area-svg burn-foot" data-burn-area="footLeftBack" role="button" tabindex="0">
<path d="M260 598 L210 598 C206 617 217 632 239 632 C258 632 269 621 260 598 Z"></path>
<path class="burn-digit" d="M256 624 C261 635 249 638 245 628"></path>
<path class="burn-digit" d="M243 628 C244 641 230 641 231 628"></path>
<path class="burn-digit" d="M230 627 C226 638 214 634 219 624"></path>
<text x="235" y="617">1¾</text>
</g>
</g>
</svg>